<svg xmlns="http://www.w3.org/2000/svg">

  <symbol id="prev" viewBox="0 0 256.1 490.8">
    <path
      d="M245.5,0c5.9,0,10.7,4.8,10.7,10.6c0,2.8-1.1,5.6-3.1,7.6L25.9,245.3L253,472.4c4.2,4.2,4.2,10.9,0,15.1
                      c-4.2,4.2-10.9,4.2-15.1,0L3.2,252.9c-4.2-4.2-4.2-10.9,0-15.1L237.9,3.1C239.9,1.1,242.6,0,245.5,0z" />
  </symbol>

  <symbol id="next" viewBox="0 0 256.1 490.8">
    <path
      d="M18.4,3.1c-4.2-4.1-11-4-15.1,0.3c-4,4.1-4,10.7,0,14.8l227.1,227.1L3.3,472.5c-4.2,4.1-4.4,10.8-0.3,15.1
                      c4.1,4.2,10.8,4.4,15.1,0.3c0.1-0.1,0.2-0.2,0.3-0.3L253,252.9c4.2-4.2,4.2-10.9,0-15.1L18.4,3.1z" />
    <path
      d="M10.8,490.7c-5.9,0-10.7-4.8-10.7-10.6c0-2.8,1.1-5.6,3.1-7.6l227.1-227.1L3.3,18.2c-4.2-4.2-4.2-10.9,0-15.1
                      s10.9-4.2,15.1,0L253,237.8c4.2,4.2,4.2,10.9,0,15.1L18.4,487.5C16.4,489.6,13.6,490.7,10.8,490.7z" />
  </symbol>

</svg>
